<svg width="550" height="165" viewBox="0 0 550 165" fill="none" xmlns="http://www.w3.org/2000/svg">
<path d="M15.6054 86.8298L13.6054 86.8298L13.6054 88.8298L15.6054 88.8298L15.6054 86.8298ZM17.0196 1.41546C16.2385 0.634416 14.9722 0.634418 14.1911 1.41547L1.46322 14.1434C0.682173 14.9245 0.682174 16.1908 1.46322 16.9718C2.24427 17.7529 3.5106 17.7529 4.29165 16.9718L15.6053 5.65811L26.9191 16.9718C27.7001 17.7528 28.9664 17.7528 29.7475 16.9718C30.5285 16.1908 30.5285 14.9244 29.7475 14.1434L17.0196 1.41546ZM547.606 86.8306L549.606 86.8306L549.606 84.8306L547.606 84.8306L547.606 86.8306ZM17.6054 86.8298L17.6053 2.82969L13.6053 2.82967L13.6054 86.8298L17.6054 86.8298ZM549.605 164.83L549.606 86.8306L545.606 86.8306L545.605 164.83L549.605 164.83ZM547.606 84.8306L15.6054 84.8298L15.6054 88.8298L547.606 88.8306L547.606 84.8306Z" fill="black"/>
</svg>
