<svg width="530" height="166" viewBox="0 0 530 166" fill="none" xmlns="http://www.w3.org/2000/svg">
<path d="M528 88.2691L528 90.2691L530 90.2691L530 88.2691L528 88.2691ZM15 88.2691L15 86.2691L13 86.2691L13 88.2691L15 88.2691ZM13.5858 165.414C14.3668 166.195 15.6332 166.195 16.4142 165.414L29.1422 152.686C29.9232 151.905 29.9232 150.639 29.1422 149.858C28.3611 149.077 27.0948 149.077 26.3137 149.858L15 161.172L3.68628 149.858C2.90521 149.077 1.63892 149.077 0.857849 149.858C0.0768433 150.639 0.0768433 151.905 0.857849 152.686L13.5858 165.414ZM526 -8.19654e-10L526 88.2691L530 88.2691L530 8.19654e-10L526 -8.19654e-10ZM528 86.2691L15 86.2691L15 90.2691L528 90.2691L528 86.2691ZM13 88.2691L13 164L17 164L17 88.2691L13 88.2691Z" fill="black"/>
</svg>
